<svg width="36" height="37" viewBox="0 0 36 37" fill="none" xmlns="http://www.w3.org/2000/svg">
<path id="Vector" d="M30.8708 2.6175C31.1349 3.03901 31.5912 3.30945 32.0865 3.35523C32.8581 3.41403 33.6036 3.68336 34.2538 4.13826C35.0271 4.70105 35.6097 5.56313 35.8681 6.71131C36.1178 7.82184 36.012 8.87591 35.5595 9.80198C35.1312 10.681 34.4671 11.2871 33.8429 11.7068C33.3479 12.039 32.7979 12.3037 32.2637 12.5173C31.453 12.8414 30.7444 13.3955 30.3342 14.1662C29.6201 15.5076 29.965 17.1396 30.8352 18.3854C31.2639 18.9992 31.6348 19.6608 31.9409 20.3609C32.6032 21.875 32.9461 23.5303 32.9447 25.2064C32.947 26.9574 32.5731 28.6699 31.8686 30.2146C31.376 31.2947 32.0883 32.7355 33.2753 32.7355C34.0504 32.7355 34.6786 33.3638 34.6786 34.1388V34.6177C34.6786 35.6573 33.8359 36.5 32.7964 36.5H1.88313C0.843586 36.5 0.000865657 35.6573 0.000865657 34.6177V34.0806C0.000865657 33.3377 0.603118 32.7355 1.34604 32.7355C2.55862 32.7355 3.22646 31.1766 2.56254 30.162C1.56274 28.634 0.828972 26.9083 0.408534 25.0695C-0.270281 22.1007 -0.100132 18.9779 0.896336 16.1167C1.8928 13.2555 3.66833 10.7916 5.98661 9.05293C8.30489 7.31424 11.056 6.38322 13.8737 6.3838H17.1914C18.2309 6.3838 19.0736 7.22651 19.0736 8.26606C19.0736 9.3056 18.2309 10.1483 17.1914 10.1483H13.8737C11.1146 10.1481 8.46835 11.3377 6.51719 13.4555C4.56602 15.5732 3.46974 18.4457 3.46951 21.441C3.46928 24.4362 4.56512 27.3089 6.51596 29.427C8.4668 31.5451 11.1128 32.7352 13.872 32.7355H22.5414C23.4834 32.735 24.4154 32.5263 25.2807 32.122C26.1459 31.7177 26.9262 31.1263 27.574 30.3839C28.2217 29.6414 28.7234 28.7635 29.0483 27.8037C29.3733 26.8439 29.5147 25.8223 29.464 24.8012C29.4133 23.7801 29.1715 22.7809 28.7534 21.8645C28.3353 20.9482 27.7496 20.1339 27.0321 19.4714C26.3146 18.8088 25.4802 18.3119 24.58 18.0109C23.6797 17.7099 22.7324 17.6112 21.7958 17.7207C20.0913 17.9093 18.5127 18.7807 17.3682 20.1649C16.2236 21.549 15.5953 23.3465 15.6059 25.2064V25.3548C15.6059 26.3124 14.8296 27.0887 13.872 27.0887C12.9144 27.0887 12.1381 26.3124 12.1381 25.3548V25.2064C12.1284 22.5521 12.9838 19.9795 14.5529 17.9437C15.7116 16.4403 17.2045 15.3012 18.8762 14.6238C19.9996 14.1686 21.0434 13.4598 21.6128 12.3896L23.0149 9.75443C23.4729 8.8936 23.5769 7.89905 23.4263 6.93565C23.3333 6.34122 23.2732 5.71021 23.2905 5.09633C23.3113 4.29825 23.4638 3.37217 23.9511 2.5308C24.4643 1.64614 25.2532 1.01935 26.2589 0.695597C27.3061 0.360554 28.2875 0.469725 29.1267 0.917704C29.9208 1.33933 30.4722 1.99624 30.8398 2.56845C30.8502 2.58475 30.8605 2.6011 30.8708 2.6175ZM25.0961 13.3708C24.8869 13.7646 25.1099 14.2495 25.534 14.3875C25.8619 14.4942 26.2253 14.3623 26.3873 14.058L28.3521 10.3679C28.5691 9.96037 28.9417 9.65782 29.3851 9.52906C30.3734 9.24107 31.3426 8.95873 32.0189 8.50511C32.3327 8.29429 32.4523 8.12865 32.4957 8.04019C32.5147 8.00066 32.565 7.89713 32.4991 7.60727C32.4419 7.35316 32.3639 7.29481 32.324 7.26658C32.1586 7.16736 31.9737 7.11251 31.7848 7.10658C31.3956 7.07481 31.0043 7.11297 30.6265 7.21952L30.5831 7.233C29.6806 7.51307 28.7306 6.96555 28.5206 6.0442L28.4804 5.86787C28.4801 5.86674 28.48 5.86559 28.48 5.86443C28.48 5.86309 28.4798 5.86175 28.4795 5.86045C28.3716 5.45651 28.2081 5.0726 27.9945 4.72176C27.897 4.54855 27.7626 4.4033 27.6026 4.29825C27.561 4.27754 27.4761 4.23049 27.2437 4.30578C26.9698 4.39424 26.9108 4.494 26.8865 4.53541C26.8397 4.61823 26.7669 4.81211 26.7565 5.20926C26.7322 6.06005 26.9888 7.09717 27.2541 8.17571C27.377 8.67511 27.3114 9.20227 27.0701 9.65641L25.0961 13.3708Z" fill="white"/>
</svg>
